<?xml version="1.0" standalone="no"?>
<!DOCTYPE svg PUBLIC "-//W3C//DTD SVG 20010904//EN"
 "http://www.w3.org/TR/2001/REC-SVG-20010904/DTD/svg10.dtd">
<svg version="1.0" xmlns="http://www.w3.org/2000/svg"
 width="548.000000pt" height="548.000000pt" viewBox="0 0 548.000000 548.000000"
 preserveAspectRatio="xMidYMid meet">
<metadata>
Created by potrace 1.14, written by Peter Selinger 2001-2017
</metadata>
<g transform="translate(0.000000,548.000000) scale(0.100000,-0.100000)"
fill="#000000" stroke="none">
<path d="M2400 5464 c-64 -13 -78 -16 -155 -29 -184 -30 -633 -168 -860 -264
-436 -185 -729 -445 -897 -797 -44 -92 -49 -104 -88 -209 -12 -33 -26 -69 -30
-80 -5 -11 -21 -51 -35 -90 -15 -38 -37 -97 -50 -130 -13 -33 -42 -118 -65
-190 -23 -71 -44 -137 -47 -145 -4 -8 -7 -21 -9 -28 -1 -7 -11 -43 -23 -80
-18 -62 -57 -209 -67 -257 -5 -22 -30 -197 -42 -285 -9 -73 -9 -379 1 -455 15
-116 18 -141 38 -255 43 -245 77 -343 221 -636 56 -116 170 -300 217 -354 88
-100 163 -180 201 -218 94 -93 258 -242 325 -297 39 -31 77 -62 86 -69 302
-248 644 -419 1029 -515 63 -16 131 -32 150 -35 19 -3 46 -8 60 -11 14 -3 45
-8 70 -11 25 -3 60 -9 78 -14 34 -9 412 -7 447 2 11 3 43 9 70 12 146 21 335
80 640 201 11 4 27 9 37 11 9 2 60 31 113 64 53 33 99 60 102 60 4 0 14 6 22
14 16 14 65 42 179 103 76 41 142 81 160 100 7 7 16 13 20 13 4 0 21 12 37 28
43 39 96 83 135 112 37 28 116 109 151 155 13 17 51 59 86 95 188 197 278 328
405 590 171 354 251 582 283 805 7 49 18 105 32 165 35 155 37 294 8 530 -26
202 -122 547 -200 717 -8 17 -15 34 -15 37 0 12 -58 128 -126 251 -39 72 -80
146 -90 165 -11 19 -21 37 -24 40 -3 3 -14 21 -24 40 -27 50 -161 251 -182
275 -11 11 -32 40 -49 65 -29 43 -164 183 -235 245 -66 57 -239 185 -337 248
-220 143 -445 233 -623 251 -88 9 -138 19 -180 36 -67 27 -151 32 -535 35
-264 2 -366 -1 -415 -11z m685 -87 c11 -3 40 -8 65 -11 25 -3 65 -8 89 -11 24
-3 52 -10 63 -16 26 -14 46 -18 178 -33 151 -19 277 -58 420 -133 269 -140
540 -350 696 -538 87 -105 244 -330 244 -351 0 -4 6 -15 14 -23 7 -9 32 -52
55 -96 44 -85 42 -83 -58 44 -79 102 -298 322 -423 427 -51 43 -118 101 -148
128 -255 235 -551 402 -764 430 -27 4 -56 11 -65 15 -38 19 -78 20 -97 2 -18
-17 -21 -17 -69 1 -27 10 -70 21 -95 24 -86 13 -335 6 -430 -11 -14 -2 -43 -6
-65 -9 -137 -19 -384 -88 -522 -147 -24 -10 -43 -15 -43 -11 0 4 -4 3 -8 -3
-4 -5 -45 -23 -92 -38 -91 -31 -111 -39 -238 -99 -220 -104 -547 -374 -735
-608 -85 -106 -177 -242 -177 -263 0 -8 -4 -17 -8 -19 -9 -3 -166 -391 -201
-493 -24 -72 -68 -238 -75 -280 -6 -42 -15 -103 -21 -150 -12 -98 -15 -123
-20 -170 -3 -27 -8 -70 -11 -95 -19 -138 -7 -374 26 -535 6 -27 12 -59 14 -70
3 -11 11 -45 20 -75 8 -30 22 -82 31 -114 9 -33 28 -89 42 -125 14 -36 39
-102 56 -146 116 -304 292 -551 532 -750 33 -28 66 -55 72 -62 18 -16 320
-215 363 -239 19 -10 37 -22 40 -25 7 -7 249 -137 324 -173 63 -30 233 -99
300 -121 258 -85 452 -115 746 -115 205 0 322 11 505 46 47 8 18 -11 -50 -34
-33 -11 -80 -29 -105 -40 -314 -135 -710 -189 -1005 -137 -382 67 -628 152
-920 317 -95 54 -368 245 -395 277 -3 3 -25 24 -50 45 -227 196 -429 402 -531
541 -55 76 -64 90 -150 259 -149 294 -207 479 -244 786 -3 25 -7 54 -9 65 -9
50 -19 166 -19 225 0 121 14 245 59 514 3 21 15 68 25 105 11 36 21 74 24 84
22 91 129 419 187 572 28 72 51 135 52 140 1 6 4 15 8 20 3 6 31 71 61 145 66
160 78 185 131 270 56 90 58 92 177 211 142 142 339 272 549 362 19 8 55 24
80 35 53 23 290 103 410 138 267 78 465 121 640 140 30 4 56 8 58 9 6 5 468
-2 487 -8z m143 -258 c20 -6 54 -20 74 -30 58 -29 101 -33 128 -11 24 20 86
20 122 1 9 -5 24 -9 32 -9 43 0 313 -135 378 -189 7 -6 50 -40 95 -76 86 -68
111 -95 77 -80 -101 41 -203 70 -242 67 -16 -1 -26 4 -29 17 -5 21 -135 82
-203 96 -3 1 -25 5 -50 9 -25 5 -52 10 -60 11 -61 11 -175 19 -285 19 -110 0
-158 -6 -315 -38 -102 -20 -192 -39 -200 -43 -8 -3 -22 -7 -30 -8 -8 -1 -27
-5 -42 -8 -15 -3 -63 -13 -105 -21 -43 -9 -89 -19 -103 -22 -14 -3 -35 -7 -48
-10 -147 -30 -500 -172 -571 -229 -9 -8 -50 -40 -91 -73 -85 -67 -204 -185
-252 -252 -18 -25 -36 -46 -40 -48 -5 -2 -8 -7 -8 -12 0 -4 -18 -38 -41 -75
-144 -237 -280 -563 -339 -810 -28 -115 -34 -153 -46 -275 -3 -30 -8 -71 -10
-90 -3 -19 -6 -107 -8 -194 -3 -159 -3 -161 36 -305 21 -81 40 -153 42 -161
30 -120 110 -380 124 -405 4 -5 7 -15 8 -22 1 -7 25 -60 54 -118 100 -203 226
-373 424 -570 116 -115 157 -153 241 -220 21 -16 45 -37 54 -45 98 -88 390
-227 589 -281 87 -24 112 -30 177 -43 201 -42 288 -50 525 -50 205 1 235 4
364 35 101 24 304 113 333 145 12 13 28 24 35 24 7 0 45 21 85 48 39 26 108
67 154 92 109 59 202 131 297 231 42 45 96 101 120 126 23 24 42 41 42 37 0
-4 -37 -65 -81 -135 -67 -104 -104 -150 -203 -247 -100 -99 -138 -129 -224
-176 -56 -31 -130 -82 -164 -112 -35 -30 -66 -54 -71 -54 -4 0 -20 6 -35 13
-35 17 -40 16 -82 -10 -58 -36 -175 -75 -300 -99 -14 -3 -32 -7 -40 -9 -8 -2
-37 -7 -65 -10 -27 -4 -77 -10 -110 -15 -63 -9 -452 -6 -495 4 -14 3 -45 7
-70 10 -127 15 -352 73 -465 121 -16 7 -55 23 -85 35 -403 165 -895 500 -1114
759 -68 80 -156 225 -210 346 -129 286 -193 496 -241 795 -11 68 -14 296 -5
355 12 72 18 123 24 190 22 229 82 460 181 695 30 69 64 154 78 190 59 158
132 265 331 483 74 82 181 176 301 265 39 28 75 55 80 60 38 29 187 118 233
139 57 25 185 72 442 162 106 38 231 75 290 86 3 1 25 5 50 9 25 5 54 10 65
13 11 2 67 7 125 10 58 3 106 6 108 8 8 7 229 -6 260 -16z m162 -283 c67 -6
143 -14 195 -22 17 -2 69 -18 118 -36 62 -23 87 -37 87 -49 0 -25 21 -38 65
-40 72 -3 189 -39 295 -92 58 -28 107 -54 110 -57 3 -3 34 -20 70 -39 100 -53
145 -89 285 -233 132 -135 175 -183 175 -195 0 -3 6 -14 14 -22 43 -49 200
-401 178 -401 -4 0 -29 35 -57 78 -27 42 -74 111 -105 152 -73 99 -264 290
-289 290 -5 0 -11 3 -13 8 -1 4 -41 37 -88 74 -97 75 -162 135 -200 183 -36
45 -104 99 -160 125 -25 12 -62 31 -82 42 -21 10 -38 17 -38 14 0 -3 -17 2
-37 11 -35 14 -58 20 -108 28 -102 16 -155 19 -320 19 -247 1 -364 -10 -540
-48 -42 -10 -167 -47 -183 -55 -257 -128 -332 -172 -443 -261 -54 -43 -249
-238 -306 -305 -23 -28 -51 -61 -63 -75 -134 -151 -348 -524 -411 -715 -16
-49 -15 -45 -35 -150 -9 -53 -12 -388 -4 -445 17 -110 22 -136 41 -210 24 -91
100 -318 142 -420 133 -326 421 -664 748 -880 151 -99 372 -202 519 -242 92
-24 116 -31 135 -33 11 -2 43 -8 70 -13 83 -17 156 -24 225 -24 69 1 90 3 210
27 41 9 85 17 98 20 13 2 31 6 40 9 9 3 28 7 42 10 14 2 45 9 70 14 25 6 70
13 100 17 30 4 60 10 65 15 6 4 28 11 50 14 50 7 65 11 90 21 11 4 35 14 53
21 60 24 32 -1 -45 -41 -43 -22 -99 -55 -125 -73 -26 -17 -51 -32 -55 -31 -34
6 -55 -4 -64 -29 -7 -21 -28 -35 -92 -65 -104 -49 -215 -85 -286 -95 -72 -9
-439 -9 -511 0 -184 24 -373 68 -525 123 -133 47 -331 147 -391 197 -27 22
-67 54 -89 71 -110 89 -296 271 -383 377 -129 157 -221 306 -287 470 -46 114
-189 608 -203 704 -14 87 -7 300 13 441 2 17 7 57 11 90 3 33 8 63 10 66 2 4
6 24 10 45 35 228 257 743 404 939 83 111 173 202 289 294 112 88 434 219 628
256 16 3 82 16 148 30 116 25 378 78 440 90 17 3 48 8 70 11 22 4 41 7 43 9 3
3 96 -2 182 -9z m215 -270 c182 -7 265 -27 410 -99 40 -20 185 -154 185 -172
0 -2 -33 7 -72 21 -268 92 -591 123 -838 79 -47 -8 -180 -45 -199 -55 -9 -5
-43 -21 -76 -36 -54 -25 -196 -110 -235 -141 -155 -121 -306 -262 -396 -368
-68 -80 -223 -303 -283 -407 -119 -209 -163 -423 -138 -684 14 -151 97 -461
162 -609 7 -16 24 -55 38 -85 82 -187 205 -343 428 -545 51 -47 166 -135 176
-135 3 0 20 -10 37 -23 17 -13 38 -27 46 -30 8 -4 31 -17 50 -28 120 -73 329
-162 414 -175 60 -10 361 -13 406 -4 25 4 59 10 75 13 17 3 48 9 70 15 22 6
51 13 65 16 14 3 51 12 83 19 31 8 57 11 57 7 0 -12 44 -27 75 -25 44 4 104
14 129 20 57 16 -93 -64 -168 -89 -47 -16 -49 -16 -68 4 -36 38 -84 24 -113
-33 -6 -13 -21 -22 -37 -24 -31 -2 -230 -43 -239 -49 -4 -2 -24 -6 -45 -9 -22
-3 -46 -8 -54 -11 -60 -21 -315 -20 -371 1 -8 3 -27 7 -44 9 -67 10 -214 56
-330 103 -155 63 -320 161 -447 265 -73 60 -236 222 -290 288 -141 174 -154
193 -217 325 -24 50 -49 101 -56 115 -7 14 -13 30 -14 35 0 6 -8 28 -17 50 -9
22 -20 49 -25 60 -14 34 -36 106 -64 208 -28 102 -32 121 -41 177 -3 19 -9 54
-14 78 -9 48 -5 345 5 407 20 129 88 303 171 445 15 25 35 59 44 75 51 89 84
142 122 193 135 185 377 436 508 527 161 112 368 213 470 230 19 3 44 8 55 12
11 3 31 7 45 9 28 3 92 13 130 20 14 3 72 8 130 11 58 3 106 6 108 8 1 1 19 1
40 -1 20 -2 91 -6 157 -8z m139 -271 c22 -3 53 -8 70 -11 17 -3 42 -7 56 -9
44 -7 142 -33 230 -60 192 -60 458 -218 460 -272 0 -12 12 -31 28 -42 15 -12
32 -24 37 -28 6 -5 23 -15 38 -23 54 -27 96 -78 169 -205 l30 -50 -69 68 c-63
63 -151 123 -298 200 -92 49 -269 106 -381 122 -21 4 -50 8 -64 10 -36 6 -97
13 -160 20 -30 3 -81 9 -112 14 -53 7 -210 6 -268 -2 -67 -10 -191 -52 -280
-96 -137 -68 -243 -156 -415 -345 -179 -197 -232 -297 -291 -551 -11 -46 -13
-321 -3 -395 5 -36 11 -81 14 -100 9 -67 76 -306 111 -395 45 -118 60 -141
216 -335 238 -298 376 -381 708 -424 25 -3 54 -8 66 -10 11 -2 45 -7 75 -10
30 -3 65 -8 79 -10 14 -3 59 -10 100 -17 95 -16 102 -15 178 29 35 20 84 49
109 64 27 15 90 35 152 48 130 28 169 42 246 94 60 40 202 175 243 231 12 17
38 53 58 80 20 28 34 45 32 40 -91 -266 -189 -412 -371 -548 -137 -103 -387
-188 -420 -143 -18 25 -61 22 -192 -12 -66 -17 -133 -33 -150 -36 -16 -3 -50
-9 -75 -14 -76 -14 -362 -4 -390 13 -4 2 -22 7 -40 10 -37 6 -213 85 -218 97
-2 5 -11 8 -20 8 -9 0 -28 9 -42 20 -14 11 -28 20 -32 20 -13 0 -184 118 -258
177 -87 70 -215 202 -281 288 -117 154 -166 256 -259 549 -114 357 -112 657 5
901 38 78 147 261 166 275 3 3 18 24 32 47 107 170 311 370 571 557 106 77
263 138 406 159 92 14 320 15 404 2z m1224 -240 c-3 -3 -9 2 -12 12 -6 14 -5
15 5 6 7 -7 10 -15 7 -18z m-1153 -138 c11 -3 52 -8 90 -11 39 -4 81 -8 95
-11 14 -2 43 -7 65 -10 113 -19 132 -24 215 -51 41 -14 110 -43 153 -65 166
-83 212 -116 310 -220 87 -93 95 -105 90 -134 -3 -21 2 -46 16 -74 45 -88 115
-293 128 -376 14 -93 7 -415 -12 -485 -2 -8 -6 -42 -10 -74 -21 -193 -165
-477 -323 -636 -120 -121 -196 -165 -322 -185 -100 -16 -203 -60 -309 -132
-24 -16 -43 -22 -60 -18 -43 9 -64 13 -116 19 -27 4 -63 9 -80 12 -16 4 -43 8
-60 9 -16 2 -59 8 -95 13 -36 6 -87 14 -115 18 -74 9 -160 40 -224 81 -31 20
-58 38 -61 42 -3 3 -25 22 -50 41 -49 38 -62 52 -172 185 -90 110 -161 205
-152 205 4 0 2 6 -4 13 -33 40 -92 191 -108 276 -3 14 -7 28 -10 33 -6 9 -6
10 -28 118 -26 129 -27 141 -31 300 -5 175 2 221 51 370 51 154 108 234 313
443 142 145 199 186 343 247 130 56 199 69 333 65 66 -2 129 -6 140 -8z m1438
-565 c3 -17 8 -35 11 -40 3 -5 8 -22 10 -38 3 -16 12 -63 20 -104 8 -41 13
-78 10 -81 -2 -4 0 -10 6 -14 6 -4 9 -9 6 -13 -2 -4 2 -45 9 -92 7 -47 11
-134 9 -195 -3 -116 -5 -130 -24 -210 -7 -27 -14 -61 -16 -75 -2 -14 -6 -36
-8 -50 -3 -14 -5 -33 -5 -43 -1 -10 -6 -15 -11 -12 -6 4 -8 10 -5 15 10 16 27
319 27 490 1 111 -5 184 -17 230 -2 8 -7 39 -10 69 -4 30 -9 63 -11 75 -3 12
-7 32 -9 46 -4 27 -12 74 -19 105 -14 69 -14 74 3 24 11 -31 22 -70 24 -87z
m-993 -2366 c0 -3 -4 -8 -10 -11 -5 -3 -10 -1 -10 4 0 6 5 11 10 11 6 0 10 -2
10 -4z"/>
</g>
</svg>
