<?xml version="1.0" encoding="utf-8"?>
<!-- Generator: Adobe Illustrator 26.0.3, SVG Export Plug-In . SVG Version: 6.00 Build 0)  -->
<svg version="1.1" id="Vector_layer_00000130623069906140030940000008271097134304890752_"
	 xmlns="http://www.w3.org/2000/svg" xmlns:xlink="http://www.w3.org/1999/xlink" x="0px" y="0px" viewBox="0 0 1620 2160"
	 style="enable-background:new 0 0 1620 2160;" xml:space="preserve">
<style type="text/css">
	.st0{fill:#E72850;}
	.st1{fill:#26276F;}
</style>
<path class="st0" d="M707.7,1220.06c0.06-0.09,0.13-0.17,0.19-0.26c0.01,0.27,0.03,0.53,0.04,0.79
	C707.86,1220.42,707.78,1220.24,707.7,1220.06z"/>
<path class="st0" d="M647.56,1427.82c0.01-0.03,0.03-0.06,0.04-0.09c0.8,1.2,1.62,2.39,2.49,3.54c-0.05,0.15-0.09,0.31-0.14,0.46
	C649.13,1430.45,648.34,1429.14,647.56,1427.82z"/>
<path class="st0" d="M647.03,1426.9c0-0.01,0-0.02,0.01-0.03c0,0,0,0,0,0C647.03,1426.89,647.03,1426.9,647.03,1426.9
	C647.03,1426.91,647.03,1426.9,647.03,1426.9z"/>
<path class="st0" d="M868.06,1004.57c0,0.01,0,0.01,0,0.02c0,0.04,0,0.07,0,0.1C868.06,1004.66,868.06,1004.61,868.06,1004.57z"/>
<path class="st0" d="M943.66,1387.69c-18.27-2.76-36.74-4.71-54.72-8.51c-13.23-3.72-24.62-12.35-34.71-21.42
	c-4.62-4.26-8.16-9.29-11.64-13.84c-5.44-7.07-11.71-13.47-16.6-20.97c-10.12-15.92-13.81-34.91-18.48-52.93
	c-2.49-15.64-3.65-31.86-2.31-47.66c2.17-10.37,5.04-20.64,8.9-30.52c6.59-14.39,18.24-25.72,28.77-37.28
	c15.4-16.45,32.13-28.01,54.13-33.92c15.55-4.81,32.1-2.68,47.88-0.21c16.08,1.14,31.8,4.08,46.97,9.69
	c10.28,3.4,19.24,9.74,28.77,14.72c10.79,6.35,18.08,17.01,26.73,25.82c1.99,2.23,1.46,5.81-1.08,7.39
	c-5.47,3.7-9.33-2.08-12.67-5.64c-4.2-4.38-8.26-8.86-12.37-13.32c-6.82-6.59-16.08-9.76-23.97-14.83
	c-23.37-11.98-50.23-13.19-75.88-15.83c-16.07-1.33-31.35,5.27-45.32,12.51c-9.12,5.24-16.18,13.11-23.82,20.21
	c-9.01,9.7-18.34,19.35-25.16,30.78c-7.09,15.74-11.83,33.01-10.24,50.38c0.18,16.03,3.24,31.63,7.97,46.9
	c3.85,16.7,12.14,31.66,23.92,44.06c4.79,5.81,9.28,12.61,14.6,17.68c9.7,8.41,20.54,16.87,33.48,19.18
	c16.4,2.58,32.15,4.93,48.5,7.16C953.04,1378.28,951.32,1388.62,943.66,1387.69z"/>
<path class="st0" d="M911.5,1415.4c-9.45-0.17-18.99,0.13-28.32-1.61c-12.09-2.82-23.38-8.46-34.31-14.22
	c-14.69-8.06-28.97-16.91-40.8-28.91c-33.31-28.38-45.86-62.28-55.74-103.61c-5.15-23.53-4.34-49.91,5.01-72.2
	c6.69-14.69,16.12-27.94,25.48-41.03c6.11-8.99,13.11-17.3,21.04-24.74c40.67-39.07,72.32-55.81,129.92-47.18
	c13.47,1.49,26.38,5.46,39.1,9.96c11.72,4.13,23.62,8.24,33.38,16.19c3.67,2.91,7.46,5.77,10.77,9.08c3.15,4.86-3.52,9.72-7.97,7.17
	c-4.09-2.49-7.33-6.35-11.17-8.91c0.03,0.02,0.06,0.05,0.09,0.07c0.08,0.06,0.16,0.12,0.24,0.18
	c-33.83-21.98-93.06-33.44-131.35-18.52c-18.67,7.7-34.04,21.02-49.05,34.19c-12.75,11.17-22.96,24.67-32.32,38.71
	c-7.29,10.52-14.22,21.42-18.97,33.35c-8.7,26.56-5.92,55.19,2.94,81.28c4.95,17.02,10.63,34.04,20.7,48.8
	c19.07,27.74,46.41,49.14,76.89,63.12c16.19,8.9,34.57,8.64,52.52,8.22c10.6-0.96,20.86-4.23,31.19-6.66
	c4.81-0.57,10.63-4.77,14.66-0.36c5.38,8.66-8.65,9.59-14.11,11.18C938.25,1412.16,925.12,1416.16,911.5,1415.4z"/>
<path class="st0" d="M877.9,1440.86c-43.38-5.47-84.07-26.46-114.49-57.75c-18.8-19.2-34.76-41.08-43.8-66.57
	c-8.43-22.73-16.9-46.45-16.75-70.99c0.33-16.17-0.26-32.77,5.6-48.12c4.26-12.58,10.4-24.3,17.59-35.43
	c4.91-9.01,10.05-17.89,16.47-25.93c20.22-24.97,42.15-50.14,71.77-64.01c23.51-14.04,51.67-17.51,78.59-18.47
	c20.52,0.19,41.91-0.49,60.89,8.47c4.85,2.76,18.4,5.77,14.37,13.34c-2.02,3.18-6.9,3.29-9.54,1.11c-5.9-3.4-12.21-6.03-18.63-8.28
	c-12.64-3.79-25.83-3.89-38.91-4.01c-11.31-0.35-22.65,0.13-33.79,2.23c-11.64,1.8-23.45,3.31-34.27,8.25
	c-21.04,9.78-41.19,22.02-56.5,39.74c-15.19,16.06-30.1,33.01-40.03,52.81c-14.39,21.59-22.81,45.26-21.45,71.45
	c-1.69,20.59,4.64,40.28,10.38,59.75c6.03,16.05,12.1,32.27,21.31,46.8c21.08,29.37,48.06,55.53,81.37,70.45
	c21.83,9.12,45.43,16.8,69.35,15.33c17.95-1.57,35.12-8.33,53.01-9.45c6.37-0.4,8.32,8.84,1.58,10.22c0,0,0,0.01,0,0.01
	C927.32,1434,903.12,1445.17,877.9,1440.86z"/>
<path class="st0" d="M878.33,1470.39c-40.72-0.53-81.81-10.76-116.84-31.81c-31.32-23.61-60.5-51.71-78.76-86.86
	c-12.6-25.44-18.55-53.62-26.08-80.82c-4.32-21.12-0.2-42.68,1.69-63.86c5.99-34.73,20.59-67.63,38.16-97.97
	c11.14-18.48,27.44-33.7,45.11-45.89c11.77-7.3,24.87-11.87,37.96-16.14c18.39-6.97,38.22-8.51,57.08-13.76
	c14.18-2.43,28.3-6.03,42.7-6.86c14.19,1.23,28.8,1.6,42.62,5.32c5.68,1.86,11.45,3.84,16.65,6.73c3.82,3.35,0.53,9.03-4.15,8.81
	c-6.06-1.02-11.48-4.77-17.55-6.13c-11.35-2.7-23.15-2.59-34.67-4.15c-8.53-0.44-16.88,1.82-25.21,3.36
	c-8.74,1.48-17.49,2.85-26.02,5.34c-13.33,2.94-26.87,4.93-40.01,8.74c-20.75,6.79-42.26,13.69-58,29.63
	c-15.06,12.58-26.72,28.69-34.91,46.48c-7.65,14.28-14.18,29.05-19.04,44.52c-7.4,18.7-9.8,38.52-11.45,58.42
	c-1.12,13.42-1.55,26.88,1.74,40.06c8.11,25.42,12.67,52.3,25.44,75.99c17.32,32.26,44.31,57.86,73,80.01
	c30.02,18.38,65.06,27.82,100.05,30.01c18.49,0.41,37.89,1.67,55.36-5.29c7.86-1.05,25.41-15.45,30.08-6.37
	c2.44,6.07-5.37,7.63-9.46,9.45c-2.42,1.13-4.77,2.46-7.25,3.45C918.23,1469.11,898.27,1470.99,878.33,1470.39z"/>
<path class="st0" d="M823.15,1489.52c-43.36-7.37-83.02-28.78-119.29-52.88c-40.46-26.27-64.53-55.52-80.21-101.2
	c-10.61-26.71-16.77-55.84-17.12-84.59c1.68-15.92,3.59-31.81,5.47-47.71c2.42-16.5,7.55-32.51,13.27-48.13
	c6.92-14.93,11.52-30.97,19.63-45.33c11.96-17.54,25.83-34.12,41.68-48.25c7.26-5.17,14.15-10.8,21.18-16.27
	c16.71-13.28,36.19-21.81,56.43-28.09c32.12-13.46,66.43-21.49,101.39-19.78c10.47-0.65,20.02,4.18,29.5,7.95
	c2.75,0.97,4.59,4.16,3.19,6.92c-4.73,8-16.46-2.05-23.18-3.14c-11.63-2.7-24-0.58-35.88-0.74c-24.2,1.8-47.66,9.48-70.09,18.42
	c-12.61,4.49-25.53,8.25-37.03,15.31c-19.65,12.91-39.27,26.76-54.62,44.72c-8.47,9.55-16.82,19.32-23.39,30.31
	c-4.38,8.25-7.33,17.11-10.68,25.79c-13.18,27.38-20.45,57.15-22.36,87.43c-5.22,25.44-0.8,51.26,5.49,76.09
	c5.64,21.56,14.69,42.21,24.48,62.18c9.99,16.63,23.01,31.17,37.91,43.55c40.41,30.53,85.74,57.79,136.14,67.06
	c34.46,5.76,76.48,4.72,109.2-8.05c3.93-1.13,6.57-4.89,10.66-5.22c4.29-0.28,7.83,4.96,4.64,8.44
	C920.98,1494.82,857.26,1495.68,823.15,1489.52z"/>
<path class="st0" d="M815.66,1521.69c-46.27-4.44-91.82-18.27-130.29-44.87c-28.53-20.27-55.37-43.9-78.4-70.26
	c-13.11-15.6-22.98-33.68-30.86-52.41c-9.38-18.3-14.01-38.23-16.91-58.48c-2.31-17.08-5.24-34.35-3.68-51.63
	c1.62-11.08,2.92-22.22,4.4-33.32c7.2-33.9,18.33-66.99,31.39-99.05c12.55-37.61,29.61-64.62,62.88-87.25
	c27.48-18.32,58.95-29.02,90.52-38.05c19.16-6.57,38.63-9.43,58.4-12.93c17.21-2.31,34.66-1.11,51.97-0.88
	c8.68,0.26,16.58,2.3,25.14,3.06c5.02-0.85,14.24,2.79,10.71,9.02c-1.85,2.79-5.76,3.23-8.55,1.7c-4.41-0.63-9.06-0.81-13.53-1.66
	c-17.88-2.94-36.18-1.93-54.24-1.9c-31.19,3.23-61.48,11.36-91.16,21.28c-45.23,14.44-92.19,40.32-110.91,86.41
	c-13.33,31.36-25.34,63.27-34.32,96.18c-4.84,14.04-7.05,28.68-8.76,43.38c-2.52,15.53-3.28,31.18-0.61,46.77
	c1.9,17.06,4.52,34.16,9.07,50.73c6.06,16.94,13.73,33.34,22.23,49.2c13.05,23,32.2,41.31,51.71,58.8
	c38.33,36.72,87.06,64.29,139.81,72.12c37.25,8.26,76.15,1.62,110.8-13.35c3.44-1.43,7.01-2.52,10.5-3.81
	c5.83-1.39,14.15-8.59,18.6-1.36c1.32,2.74-0.37,6-3.19,6.91c-7.21,2.77-14.44,5.5-21.69,8.17
	C877.99,1516.2,846.85,1523.42,815.66,1521.69z"/>
<path class="st1" d="M946.32,1388.65c-6.91-3.21-2.99-10.57,3.59-10.25c6.25-3.05,11.72-7.45,17.98-10.51
	c10.37-5.17,22.88-4.03,32.97-9.85c24.66-15.76,39.77-42.56,47.5-70.22c2.94-20.08,6.1-40.62,3.36-60.89
	c-1.27-12.22-6.58-23.36-10.64-34.81c-2.13-5.07-9.02-13.29-0.41-15.92c7.72-1.57,9.4,8.7,12.24,13.85
	c2.79,8.11,6.5,15.92,8.55,24.27c5.03,20.06,3.4,40.94,0.73,61.23c-0.7,14.44-6.29,27.66-11.79,40.83
	c-9.08,19.98-23.58,37.78-41.97,49.84c-10,6.75-22.65,6.38-33.7,10.33C965.32,1380.12,957.06,1390.99,946.32,1388.65z"/>
<path class="st1" d="M965.01,1410c-2.92-0.34-5.6-2.83-5.12-5.93c0.67-4.1,4.99-4.75,8.41-4.53c4.41-0.36,8.75-1.17,12.99-2.43
	c15.73-4.84,28.95-14.01,40.41-25.57c15.85-15.89,20.22-38.26,29.14-58.08c17.02-47.72,25.13-83.17,3.76-131.77
	c-5.33-9.47-12.56-17.64-18.33-26.81c-2.86-4.68-5.58-9.48-9.51-13.36c-3.94-5.91-22.84-10.1-15.68-18.72
	c4.43-3.83,8.87,0.49,12.56,3.08c16.44,7.87,22.82,25.74,33.87,39.03c18.65,26.14,23.9,60.37,21.21,91.86
	c-2.96,19.31-9.19,38.03-15.28,56.56c-8.16,18.08-12.38,38.34-24.17,54.56C1022.2,1391.13,994.53,1409.86,965.01,1410z"/>
<path class="st1" d="M949.47,1428.62c-5.11-2.22-3.61-11.2,0.52-13.59c3.22-1.77,8.24-0.11,8.78,3.78
	c18.06-4.5,32.75-16.64,47.92-26.8c10.14-5.48,18.2-13.54,23.99-23.49c12.51-16.42,19.07-36.46,21.54-56.8
	c2.61-25.32,2.91-50.87,2.61-76.3c0.19-12.74-0.55-25.48-3.72-37.87c-3.06-12.94-5.27-26.27-12.22-37.84
	c-9.24-16.4-20.24-31.99-35.14-43.74c-13.54-11.25-28.43-20.86-39.4-34.87c-3.37-2.13-4.96-6.92-1.11-9.46
	c8.39-4.5,13.37,7.6,18.7,12.1c11.36,11.13,25.1,19.42,36.65,30.35c17.14,16.32,31.22,36.93,38.95,59.35
	c3.43,14.87,7.99,29.68,8.94,44.98c0.39,10.56,0.36,21.12,0.49,31.68c-0.77,27.1,0.13,54.75-6.32,81.25
	c-4.83,21.47-16.6,41.06-31.1,57.4c-8.66,8.52-19.95,13.72-29.54,21.11C986.91,1418.46,965.44,1433.09,949.47,1428.62z"/>
<path class="st1" d="M951.84,1450.14c-10.72-0.26-9.72-13.3,0.6-10.73c10.36-8.5,23.64-12.61,34.12-20.78
	c17.42-15.82,33.9-32.82,48.82-51.02c10.63-16.74,21.7-33.85,27.21-53.08c4.88-22.4,8.18-45.07,8.24-68.04
	c0.98-20.12,0.08-40.68-7.37-59.63c-10.88-28.82-17.83-60.81-39.31-84.01c-9.57-8.5-17.78-18.97-27.92-26.49
	c-10.4-6.12-21.35-11.29-31.79-17.36c-6.11-2.31-12.35-4.43-18.72-5.9c-4.41-1.15-11.06,1.44-13-4.2
	c-1.79-15.06,33.5-0.92,40.06,2.2c7.71,4.69,15.71,8.78,23.78,12.79c11.34,5.55,19.45,15.36,28.28,24.06
	c25.64,21.28,35.47,53.98,46.05,84.31c7.8,19.93,13.09,40.78,12.22,62.34c-0.06,27.59-2.53,55.02-8.79,81.91
	c-4.72,18.77-15.86,35.02-25.18,51.41c-11.01,16.62-26.08,29.95-39.5,44.55c-11.13,12.25-24.64,21.46-39.63,28.33
	C963.98,1443.89,959.11,1450.49,951.84,1450.14z"/>
<path class="st1" d="M951.36,1479.33c-9.88-0.1-9.09-13.02,0.79-10.65c5.86-3.99,10.22-9.94,16.67-13.21
	c12.81-6.77,25.95-13.8,35.27-25.23c14.48-20.61,27.2-42.45,40.6-63.77c11.79-21.3,18.94-45.17,22.15-69.25
	c6.05-51.57,6.17-106.4-14.46-154.8c-13.54-28.87-37-52.61-60.03-73.65c-22.61-18.55-43.07-40.42-70.99-51.06
	c-5.52-2.48-11.38-4.07-17.31-5.23c-5.89-1.14-20.34-2.02-16.41-11.01c3.08-4.37,8.19-1.96,12.12-0.3c3.01,0.55,6.08,0.8,9.08,1.49
	c29.62,6.67,54.79,25.2,76.52,45.7c28.59,23.71,56.36,50.12,74.61,82.86c16.89,34.61,22.97,73.78,22.01,111.97
	c0.4,37.91-3.54,76.54-18.54,111.69c-8.47,19.49-21.24,36.59-32.12,54.73c-15.2,26.44-27.45,41.03-55.65,54.29
	C967.02,1468.22,961.82,1479.11,951.36,1479.33z"/>
<path class="st1" d="M917.69,1490.99c-0.64-5.82,5.63-5.53,9.41-7.08c14.47-9.04,29.37-17.38,44.25-25.73
	c8.55-5.55,15.4-13.22,22.62-20.32c11.23-11.28,23.27-21.88,33.38-34.21c16.41-18.86,26.62-41.83,36.53-64.47
	c9.96-20.93,15.89-43.22,19.36-66.07c2.57-12.74,6.04-25.48,4.33-38.59c-3.96-43.43-16.4-86.36-39.44-123.59
	c-12.13-23.32-26.84-45.36-44.77-64.63c-20.91-18.94-44.26-35.86-70.07-47.47c-8.24-3.5-17-5.54-25.77-7.22
	c-8.17-1.72-17.57-0.6-24.89-4.97c-6.23-5.34,2.48-13.26,8.13-7.82c10.6,1.78,21.39,2.42,31.79,5.35
	c19.15,4.91,36.81,14.89,52.95,26.1c20.24,14.14,40,29.19,54.14,49.76c16.57,20.85,28.46,44.88,41.4,68.03
	c17.39,37.13,28.19,77.85,28.87,118.95c-0.67,10.66-3.78,20.99-5.58,31.49c-2.13,10.72-3.26,21.67-6.79,32.07
	c-8.77,26.1-20.26,51.68-33.71,75.64c-13.14,23.69-34.03,41.74-53,60.66c-11.04,12.41-24.4,22.05-39.33,29.25
	c-6.06,3.47-12.08,7-18.11,10.52C936.96,1490.79,922.07,1501.75,917.69,1490.99z"/>
</svg>
